<svg width="184" height="60" viewBox="0 0 184 60" fill="none" xmlns="http://www.w3.org/2000/svg">
<path fill-rule="evenodd" clip-rule="evenodd" d="M39.1305 56.087C53.5379 56.087 65.2174 44.4075 65.2174 30C65.2174 15.5926 53.5379 3.91309 39.1305 3.91309C28.4332 3.91309 19.2397 10.3518 15.2142 19.5653H15.6522C16.8048 19.5653 17.7392 20.4996 17.7392 21.6522C17.7392 22.8048 16.8048 23.7392 15.6522 23.7392H13.7997C13.4664 25.092 13.2387 26.4864 13.1258 27.9131H13.5653C14.7179 27.9131 15.6522 28.8474 15.6522 30C15.6522 31.1526 14.7179 32.087 13.5653 32.087H13.1258C13.2387 33.5137 13.4664 34.9081 13.7997 36.2609H19.8261C20.9787 36.2609 21.9131 37.1953 21.9131 38.3479C21.9131 39.5005 20.9787 40.4348 19.8261 40.4348H15.2142C19.2397 49.6482 28.4332 56.087 39.1305 56.087Z" fill="#C2EF7E"/>
<path d="M48.0001 30.2607C48.0001 35.3033 43.9122 39.3911 38.8696 39.3911C33.827 39.3911 29.7392 35.3033 29.7392 30.2607C29.7392 25.2181 33.827 21.1302 38.8696 21.1302C43.9122 21.1302 48.0001 25.2181 48.0001 30.2607Z" fill="white"/>
<path opacity="0.8" d="M4.17391 34.1741C4.17391 35.3267 3.23955 36.2611 2.08696 36.2611C0.934362 36.2611 0 35.3267 0 34.1741C0 33.0215 0.934362 32.0872 2.08696 32.0872C3.23955 32.0872 4.17391 33.0215 4.17391 34.1741Z" fill="#61A96A"/>
<path d="M41.7391 30.0001C41.7391 31.4408 40.5712 32.6087 39.1304 32.6087C37.6897 32.6087 36.5217 31.4408 36.5217 30.0001C36.5217 28.5593 37.6897 27.3914 39.1304 27.3914C40.5712 27.3914 41.7391 28.5593 41.7391 30.0001Z" fill="#C2EF7E"/>
<path fill-rule="evenodd" clip-rule="evenodd" d="M39.1304 14.8694C40.5712 14.8694 41.7391 16.0373 41.7391 17.4781L41.7391 22.6955C41.7391 24.1362 40.5712 25.3042 39.1304 25.3042C37.6897 25.3042 36.5217 24.1362 36.5217 22.6955L36.5217 17.4781C36.5217 16.0373 37.6897 14.8694 39.1304 14.8694Z" fill="white"/>
<path fill-rule="evenodd" clip-rule="evenodd" d="M7.30431 34.1741C7.30431 33.0215 8.23868 32.0872 9.39127 32.0872L25.0434 32.0872C26.196 32.0872 27.1304 33.0215 27.1304 34.1741C27.1304 35.3267 26.196 36.2611 25.0434 36.2611L9.39127 36.2611C8.23868 36.2611 7.30431 35.3267 7.30431 34.1741Z" fill="#C2EF7E"/>
<path fill-rule="evenodd" clip-rule="evenodd" d="M11.4783 42.5218C11.4783 41.3692 12.4127 40.4348 13.5653 40.4348L24.0001 40.4348C25.1527 40.4348 26.087 41.3692 26.087 42.5218C26.087 43.6744 25.1527 44.6087 24.0001 44.6087L13.5653 44.6087C12.4127 44.6087 11.4783 43.6744 11.4783 42.5218Z" fill="#C2EF7E"/>
<path fill-rule="evenodd" clip-rule="evenodd" d="M2.6087 25.826C2.6087 24.6734 3.54306 23.739 4.69565 23.739L19.8261 23.739C20.9787 23.739 21.913 24.6734 21.913 25.826C21.913 26.9786 20.9787 27.9129 19.8261 27.9129L4.69565 27.9129C3.54306 27.9129 2.6087 26.9786 2.6087 25.826Z" fill="#C2EF7E"/>
<path fill-rule="evenodd" clip-rule="evenodd" d="M10.4348 17.4784C10.4348 16.3258 11.3691 15.3915 12.5217 15.3915L20.8696 15.3915C22.0222 15.3915 22.9565 16.3258 22.9565 17.4784C22.9565 18.631 22.0221 19.5654 20.8696 19.5654L12.5217 19.5654C11.3691 19.5654 10.4348 18.631 10.4348 17.4784Z" fill="#C2EF7E"/>
<path fill-rule="evenodd" clip-rule="evenodd" d="M60.0564 31.7926C60.9161 31.883 61.5398 32.6532 61.4495 33.5129C61.1595 36.2726 60.3287 38.9481 59.0047 41.3867C57.6806 43.8254 55.8892 45.9793 53.7328 47.7256C53.061 48.2697 52.0753 48.1661 51.5313 47.4943C50.9873 46.8225 51.0909 45.8369 51.7627 45.2929C53.5997 43.8053 55.1257 41.9704 56.2536 39.893C57.3815 37.8157 58.0891 35.5365 58.3362 33.1857C58.4266 32.326 59.1967 31.7023 60.0564 31.7926Z" fill="#61A96A"/>
<path fill-rule="evenodd" clip-rule="evenodd" d="M50.262 48.2948C50.6338 49.0752 50.3025 50.0092 49.5221 50.381C48.9227 50.6665 48.3101 50.9237 47.6865 51.1515C46.8746 51.4482 45.9759 51.0305 45.6792 50.2186C45.3825 49.4066 45.8002 48.5079 46.6122 48.2112C47.1434 48.0171 47.6652 47.7981 48.1758 47.5549C48.9562 47.1831 49.8903 47.5144 50.262 48.2948Z" fill="#61A96A"/>
<path fill-rule="evenodd" clip-rule="evenodd" d="M78.2826 0C79.1111 0 79.7826 0.291988 79.7826 0.652174V59.3478C79.7826 59.708 79.1111 60 78.2826 60C77.4542 60 76.7826 59.708 76.7826 59.3478V0.652174C76.7826 0.291988 77.4542 0 78.2826 0Z" fill="#285A84"/>
<path d="M95.3044 15.2173H93.1757V2.04858H95.8052L98.0174 9.87467L100.23 2.04858H102.859V15.2173H100.751V5.97206L98.9983 12.3581H97.0574L95.3044 5.99293V15.2173Z" fill="#285A84"/>
<path d="M106.94 4.97032H109.152C110.655 4.97032 111.406 5.65902 111.406 7.03641V10.7721H106.961V12.8799C106.961 13.1025 106.996 13.2555 107.065 13.339C107.149 13.4086 107.309 13.4434 107.545 13.4434H108.505C108.728 13.4434 108.881 13.4086 108.964 13.339C109.048 13.2555 109.09 13.1025 109.09 12.8799V12.1077H111.385V13.1512C111.385 14.5286 110.627 15.2173 109.111 15.2173H106.94C105.424 15.2173 104.665 14.5286 104.665 13.1512V7.03641C104.665 5.65902 105.424 4.97032 106.94 4.97032ZM106.961 9.24858H109.131V7.28684C109.131 7.06424 109.09 6.91815 109.006 6.84858C108.923 6.76511 108.77 6.72337 108.547 6.72337H107.545C107.323 6.72337 107.17 6.76511 107.086 6.84858C107.003 6.91815 106.961 7.06424 106.961 7.28684V9.24858Z" fill="#285A84"/>
<path d="M117.054 4.97032H119.391V15.2173H117.012V14.3408C116.803 14.9251 116.323 15.2173 115.572 15.2173H114.925C113.506 15.2173 112.796 14.5286 112.796 13.1512V7.03641C112.796 5.65902 113.506 4.97032 114.925 4.97032H115.572C116.393 4.97032 116.887 5.30424 117.054 5.97206V4.97032ZM115.739 13.3808H116.365C116.796 13.3808 117.012 13.1512 117.012 12.6921V7.49554C117.012 7.03641 116.796 6.80684 116.365 6.80684H115.739C115.516 6.80684 115.363 6.84858 115.28 6.93206C115.196 7.00163 115.154 7.14771 115.154 7.37032V12.8173C115.154 13.0399 115.196 13.1929 115.28 13.2764C115.363 13.346 115.516 13.3808 115.739 13.3808Z" fill="#285A84"/>
<path d="M124.87 12.9634V11.5234C124.87 11.3008 124.829 11.1547 124.745 11.0851C124.662 11.0016 124.502 10.9599 124.265 10.9599H123.138C121.649 10.9599 120.905 10.2781 120.905 8.91467V7.03641C120.905 5.65902 121.663 4.97032 123.18 4.97032H124.829C126.331 4.97032 127.083 5.65902 127.083 7.03641V7.99641H124.808V7.22424C124.808 7.00163 124.766 6.85554 124.683 6.78598C124.599 6.7025 124.446 6.66076 124.223 6.66076H123.806C123.569 6.66076 123.409 6.7025 123.326 6.78598C123.243 6.85554 123.201 7.00163 123.201 7.22424V8.72684C123.201 8.94945 123.243 9.1025 123.326 9.18598C123.409 9.25554 123.569 9.29032 123.806 9.29032H124.933C126.436 9.29032 127.187 9.97206 127.187 11.3355V13.1512C127.187 14.5286 126.429 15.2173 124.912 15.2173H123.222C121.705 15.2173 120.947 14.5286 120.947 13.1512V12.2121H123.263V12.9634C123.263 13.186 123.305 13.339 123.389 13.4225C123.472 13.4921 123.625 13.5268 123.848 13.5268H124.265C124.502 13.5268 124.662 13.4921 124.745 13.4225C124.829 13.339 124.87 13.186 124.87 12.9634Z" fill="#285A84"/>
<path d="M132.891 4.97032H135.27V15.2173H132.932V14.1947C132.765 14.8764 132.271 15.2173 131.451 15.2173H130.804C129.385 15.2173 128.675 14.5286 128.675 13.1512V4.97032H131.033V12.8173C131.033 13.0399 131.075 13.1929 131.158 13.2764C131.242 13.346 131.395 13.3808 131.618 13.3808H132.244C132.675 13.3808 132.891 13.1512 132.891 12.6921V4.97032Z" fill="#285A84"/>
<path d="M141.226 4.92858H141.602V6.9738H140.725C139.849 6.9738 139.411 7.47467 139.411 8.47641V15.2173H137.052V4.97032H139.39V6.28511C139.501 5.88163 139.717 5.55467 140.037 5.30424C140.357 5.0538 140.753 4.92858 141.226 4.92858Z" fill="#285A84"/>
<path d="M144.766 4.97032H146.978C148.481 4.97032 149.232 5.65902 149.232 7.03641V10.7721H144.787V12.8799C144.787 13.1025 144.822 13.2555 144.891 13.339C144.975 13.4086 145.135 13.4434 145.371 13.4434H146.331C146.554 13.4434 146.707 13.4086 146.791 13.339C146.874 13.2555 146.916 13.1025 146.916 12.8799V12.1077H149.211V13.1512C149.211 14.5286 148.453 15.2173 146.937 15.2173H144.766C143.25 15.2173 142.491 14.5286 142.491 13.1512V7.03641C142.491 5.65902 143.25 4.97032 144.766 4.97032ZM144.787 9.24858H146.958V7.28684C146.958 7.06424 146.916 6.91815 146.832 6.84858C146.749 6.76511 146.596 6.72337 146.373 6.72337H145.371C145.149 6.72337 144.996 6.76511 144.912 6.84858C144.829 6.91815 144.787 7.06424 144.787 7.28684V9.24858Z" fill="#285A84"/>
<path d="M158.803 4.97032H159.45C160.869 4.97032 161.579 5.65902 161.579 7.03641V15.2173H159.22V7.37032C159.22 7.14771 159.179 7.00163 159.095 6.93206C159.012 6.84858 158.859 6.80684 158.636 6.80684H158.01C157.579 6.80684 157.363 7.03641 157.363 7.49554V15.2173H154.984V7.37032C154.984 7.14771 154.942 7.00163 154.859 6.93206C154.775 6.84858 154.622 6.80684 154.4 6.80684H153.774C153.342 6.80684 153.127 7.03641 153.127 7.49554V15.2173H150.768V4.97032H153.106V5.90945C153.3 5.28337 153.794 4.97032 154.587 4.97032H155.214C156.243 4.97032 156.897 5.31815 157.175 6.0138C157.37 5.31815 157.913 4.97032 158.803 4.97032Z" fill="#285A84"/>
<path d="M165.432 4.97032H167.644C169.147 4.97032 169.898 5.65902 169.898 7.03641V10.7721H165.453V12.8799C165.453 13.1025 165.488 13.2555 165.557 13.339C165.641 13.4086 165.801 13.4434 166.037 13.4434H166.997C167.22 13.4434 167.373 13.4086 167.456 13.339C167.54 13.2555 167.582 13.1025 167.582 12.8799V12.1077H169.877V13.1512C169.877 14.5286 169.119 15.2173 167.602 15.2173H165.432C163.915 15.2173 163.157 14.5286 163.157 13.1512V7.03641C163.157 5.65902 163.915 4.97032 165.432 4.97032ZM165.453 9.24858H167.623V7.28684C167.623 7.06424 167.582 6.91815 167.498 6.84858C167.415 6.76511 167.262 6.72337 167.039 6.72337H166.037C165.815 6.72337 165.662 6.76511 165.578 6.84858C165.495 6.91815 165.453 7.06424 165.453 7.28684V9.24858Z" fill="#285A84"/>
<path d="M175.253 4.97032H175.879C177.312 4.97032 178.029 5.65902 178.029 7.03641V15.2173H175.65V7.37032C175.65 7.14771 175.608 7.00163 175.525 6.93206C175.441 6.84858 175.288 6.80684 175.065 6.80684H174.439C174.008 6.80684 173.792 7.03641 173.792 7.49554V15.2173H171.434V4.97032H173.771V5.90945C173.966 5.28337 174.46 4.97032 175.253 4.97032Z" fill="#285A84"/>
<path d="M183.756 6.80684H182.358V12.7547C182.358 12.9773 182.399 13.1303 182.483 13.2138C182.566 13.2834 182.726 13.3181 182.963 13.3181H183.735V15.2173H182.274C180.758 15.2173 179.999 14.5286 179.999 13.1512V6.80684H178.977V4.97032H179.999V3.1338H182.358V4.97032H183.756V6.80684Z" fill="#285A84"/>
<path d="M98.5809 36.0868L98.08 33.3529H95.2L94.7409 36.0868H92.3409L94.9913 22.9181H98.2261L101.002 36.0868H98.5809ZM95.5131 31.5373H97.7461L96.5983 25.2347L95.5131 31.5373Z" fill="#285A84"/>
<path d="M106.129 22.1251H108.508V36.0868H106.17V35.0642C106.003 35.746 105.51 36.0868 104.689 36.0868H104.042C102.623 36.0868 101.913 35.3981 101.913 34.0208V27.8851C101.913 26.5077 102.623 25.819 104.042 25.819H104.689C105.44 25.819 105.92 26.1112 106.129 26.6955V22.1251ZM104.856 34.2503H105.482C105.913 34.2503 106.129 34.0208 106.129 33.5616V28.3651C106.129 28.1008 106.08 27.9199 105.983 27.8225C105.885 27.7112 105.718 27.6555 105.482 27.6555H104.856C104.633 27.6555 104.48 27.6973 104.396 27.7808C104.313 27.8503 104.271 27.9964 104.271 28.219V33.6868C104.271 33.9095 104.313 34.0625 104.396 34.146C104.48 34.2155 104.633 34.2503 104.856 34.2503Z" fill="#285A84"/>
<path d="M111.796 25.8399L113.111 33.8747L114.425 25.8399H116.784L114.676 36.0868H111.545L109.438 25.8399H111.796Z" fill="#285A84"/>
<path d="M121.863 25.8399H124.201V36.0868H121.822V35.2103C121.613 35.7947 121.133 36.0868 120.382 36.0868H119.735C118.316 36.0868 117.606 35.3981 117.606 34.0208V27.906C117.606 26.5286 118.316 25.8399 119.735 25.8399H120.382C121.202 25.8399 121.696 26.1738 121.863 26.8416V25.8399ZM120.549 34.2503H121.175C121.606 34.2503 121.822 34.0208 121.822 33.5616V28.3651C121.822 27.906 121.606 27.6764 121.175 27.6764H120.549C120.326 27.6764 120.173 27.7181 120.089 27.8016C120.006 27.8712 119.964 28.0173 119.964 28.2399V33.6868C119.964 33.9095 120.006 34.0625 120.089 34.146C120.173 34.2155 120.326 34.2503 120.549 34.2503Z" fill="#285A84"/>
<path d="M129.784 25.8399H130.411C131.844 25.8399 132.56 26.5286 132.56 27.906V36.0868H130.181V28.2399C130.181 28.0173 130.139 27.8712 130.056 27.8016C129.972 27.7181 129.819 27.6764 129.597 27.6764H128.971C128.539 27.6764 128.324 27.906 128.324 28.3651V36.0868H125.965V25.8399H128.303V26.779C128.498 26.1529 128.991 25.8399 129.784 25.8399Z" fill="#285A84"/>
<path d="M140.75 29.2834H138.433V28.2399C138.433 28.0173 138.391 27.8712 138.308 27.8016C138.224 27.7181 138.071 27.6764 137.849 27.6764H137.097C136.875 27.6764 136.722 27.7181 136.638 27.8016C136.555 27.8712 136.513 28.0173 136.513 28.2399V33.6868C136.513 33.9095 136.555 34.0625 136.638 34.146C136.722 34.2155 136.875 34.2503 137.097 34.2503H137.849C138.071 34.2503 138.224 34.2155 138.308 34.146C138.391 34.0625 138.433 33.9095 138.433 33.6868V32.6225H140.75V34.0208C140.75 35.3981 139.991 36.0868 138.475 36.0868H136.43C134.913 36.0868 134.155 35.3981 134.155 34.0208V27.906C134.155 26.5286 134.913 25.8399 136.43 25.8399H138.475C139.991 25.8399 140.75 26.5286 140.75 27.906V29.2834Z" fill="#285A84"/>
<path d="M144.399 25.8399H146.612C148.114 25.8399 148.865 26.5286 148.865 27.906V31.6416H144.42V33.7495C144.42 33.9721 144.455 34.1251 144.525 34.2086C144.608 34.2781 144.768 34.3129 145.005 34.3129H145.965C146.187 34.3129 146.34 34.2781 146.424 34.2086C146.507 34.1251 146.549 33.9721 146.549 33.7495V32.9773H148.845V34.0208C148.845 35.3981 148.086 36.0868 146.57 36.0868H144.399C142.883 36.0868 142.125 35.3981 142.125 34.0208V27.906C142.125 26.5286 142.883 25.8399 144.399 25.8399ZM144.42 30.1181H146.591V28.1564C146.591 27.9338 146.549 27.7877 146.465 27.7181C146.382 27.6347 146.229 27.5929 146.006 27.5929H145.005C144.782 27.5929 144.629 27.6347 144.545 27.7181C144.462 27.7877 144.42 27.9338 144.42 28.1564V30.1181Z" fill="#285A84"/>
<path d="M154.471 22.1251H156.85V36.0868H154.513V35.0642C154.346 35.746 153.852 36.0868 153.031 36.0868H152.384C150.965 36.0868 150.255 35.3981 150.255 34.0208V27.8851C150.255 26.5077 150.965 25.819 152.384 25.819H153.031C153.782 25.819 154.262 26.1112 154.471 26.6955V22.1251ZM153.198 34.2503H153.824C154.255 34.2503 154.471 34.0208 154.471 33.5616V28.3651C154.471 28.1008 154.422 27.9199 154.325 27.8225C154.228 27.7112 154.061 27.6555 153.824 27.6555H153.198C152.975 27.6555 152.822 27.6973 152.739 27.7808C152.655 27.8503 152.614 27.9964 152.614 28.219V33.6868C152.614 33.9095 152.655 34.0625 152.739 34.146C152.822 34.2155 152.975 34.2503 153.198 34.2503Z" fill="#285A84"/>
<path d="M95.5965 55.1199H99.6035V56.9564H93.1757V43.7877H99.4365V45.6242H95.5965V49.2764H98.8313V51.1338H95.5965V55.1199Z" fill="#285A84"/>
<path d="M104.696 46.7094H105.322C106.755 46.7094 107.472 47.3981 107.472 48.7755V56.9564H105.093V49.1094C105.093 48.8868 105.051 48.7408 104.967 48.6712C104.884 48.5877 104.731 48.546 104.508 48.546H103.882C103.451 48.546 103.235 48.7755 103.235 49.2347V56.9564H100.877V46.7094H103.214V47.6486C103.409 47.0225 103.903 46.7094 104.696 46.7094Z" fill="#285A84"/>
<path d="M113.324 46.7094H115.661V57.7286C115.661 59.106 114.903 59.7947 113.387 59.7947H109.442V57.9999H112.698C112.92 57.9999 113.073 57.9581 113.157 57.8747C113.24 57.8051 113.282 57.659 113.282 57.4364V55.8086C113.073 56.3929 112.593 56.6851 111.842 56.6851H111.195C109.776 56.6851 109.067 55.9964 109.067 54.619V48.7755C109.067 47.3981 109.776 46.7094 111.195 46.7094H111.842C112.663 46.7094 113.157 47.0434 113.324 47.7112V46.7094ZM112.009 54.8486H112.635C112.872 54.8486 113.039 54.7999 113.136 54.7025C113.233 54.5912 113.282 54.4034 113.282 54.139V49.2347C113.282 48.7755 113.067 48.546 112.635 48.546H112.009C111.787 48.546 111.633 48.5877 111.55 48.6712C111.467 48.7408 111.425 48.8868 111.425 49.1094V54.2851C111.425 54.5077 111.467 54.6608 111.55 54.7442C111.633 54.8138 111.787 54.8486 112.009 54.8486Z" fill="#285A84"/>
<path d="M117.363 45.0399V42.9738H119.847V45.0399H117.363ZM119.784 56.9564H117.426V46.7094H119.784V56.9564Z" fill="#285A84"/>
<path d="M125.403 46.7094H126.029C127.462 46.7094 128.178 47.3981 128.178 48.7755V56.9564H125.799V49.1094C125.799 48.8868 125.757 48.7408 125.674 48.6712C125.59 48.5877 125.437 48.546 125.215 48.546H124.589C124.157 48.546 123.942 48.7755 123.942 49.2347V56.9564H121.584V46.7094H123.921V47.6486C124.116 47.0225 124.61 46.7094 125.403 46.7094Z" fill="#285A84"/>
<path d="M132.09 46.7094H134.302C135.804 46.7094 136.556 47.3981 136.556 48.7755V52.5112H132.11V54.619C132.11 54.8416 132.145 54.9947 132.215 55.0781C132.298 55.1477 132.458 55.1825 132.695 55.1825H133.655C133.877 55.1825 134.03 55.1477 134.114 55.0781C134.197 54.9947 134.239 54.8416 134.239 54.619V53.8468H136.535V54.8903C136.535 56.2677 135.777 56.9564 134.26 56.9564H132.09C130.573 56.9564 129.815 56.2677 129.815 54.8903V48.7755C129.815 47.3981 130.573 46.7094 132.09 46.7094ZM132.11 50.9877H134.281V49.026C134.281 48.8034 134.239 48.6573 134.156 48.5877C134.072 48.5042 133.919 48.4625 133.697 48.4625H132.695C132.472 48.4625 132.319 48.5042 132.236 48.5877C132.152 48.6573 132.11 48.8034 132.11 49.026V50.9877Z" fill="#285A84"/>
<path d="M140.262 46.7094H142.474C143.977 46.7094 144.728 47.3981 144.728 48.7755V52.5112H140.283V54.619C140.283 54.8416 140.318 54.9947 140.387 55.0781C140.471 55.1477 140.631 55.1825 140.867 55.1825H141.827C142.05 55.1825 142.203 55.1477 142.286 55.0781C142.37 54.9947 142.412 54.8416 142.412 54.619V53.8468H144.707V54.8903C144.707 56.2677 143.949 56.9564 142.433 56.9564H140.262C138.746 56.9564 137.987 56.2677 137.987 54.8903V48.7755C137.987 47.3981 138.746 46.7094 140.262 46.7094ZM140.283 50.9877H142.453V49.026C142.453 48.8034 142.412 48.6573 142.328 48.5877C142.245 48.5042 142.092 48.4625 141.869 48.4625H140.867C140.645 48.4625 140.492 48.5042 140.408 48.5877C140.325 48.6573 140.283 48.8034 140.283 49.026V50.9877Z" fill="#285A84"/>
<path d="M150.438 46.6677H150.814V48.7129H149.937C149.061 48.7129 148.623 49.2138 148.623 50.2155V56.9564H146.264V46.7094H148.602V48.0242C148.713 47.6208 148.929 47.2938 149.249 47.0434C149.569 46.7929 149.965 46.6677 150.438 46.6677Z" fill="#285A84"/>
<path d="M151.745 45.0399V42.9738H154.229V45.0399H151.745ZM154.166 56.9564H151.808V46.7094H154.166V56.9564Z" fill="#285A84"/>
<path d="M159.784 46.7094H160.411C161.844 46.7094 162.56 47.3981 162.56 48.7755V56.9564H160.181V49.1094C160.181 48.8868 160.139 48.7408 160.056 48.6712C159.972 48.5877 159.819 48.546 159.597 48.546H158.971C158.539 48.546 158.324 48.7755 158.324 49.2347V56.9564H155.965V46.7094H158.303V47.6486C158.498 47.0225 158.991 46.7094 159.784 46.7094Z" fill="#285A84"/>
<path d="M168.412 46.7094H170.75V57.7286C170.75 59.106 169.991 59.7947 168.475 59.7947H164.53V57.9999H167.786C168.009 57.9999 168.162 57.9581 168.245 57.8747C168.329 57.8051 168.37 57.659 168.37 57.4364V55.8086C168.162 56.3929 167.682 56.6851 166.93 56.6851H166.284C164.864 56.6851 164.155 55.9964 164.155 54.619V48.7755C164.155 47.3981 164.864 46.7094 166.284 46.7094H166.93C167.751 46.7094 168.245 47.0434 168.412 47.7112V46.7094ZM167.097 54.8486H167.724C167.96 54.8486 168.127 54.7999 168.224 54.7025C168.322 54.5912 168.37 54.4034 168.37 54.139V49.2347C168.37 48.7755 168.155 48.546 167.724 48.546H167.097C166.875 48.546 166.722 48.5877 166.638 48.6712C166.555 48.7408 166.513 48.8868 166.513 49.1094V54.2851C166.513 54.5077 166.555 54.6608 166.638 54.7442C166.722 54.8138 166.875 54.8486 167.097 54.8486Z" fill="#285A84"/>
</svg>
